<?xml version="1.0" standalone="no"?>
<!DOCTYPE svg PUBLIC "-//W3C//DTD SVG 20010904//EN"
 "http://www.w3.org/TR/2001/REC-SVG-20010904/DTD/svg10.dtd">
<svg version="1.0" xmlns="http://www.w3.org/2000/svg"
 width="200.000000pt" height="200.000000pt" viewBox="0 0 200.000000 200.000000"
 preserveAspectRatio="xMidYMid meet">

<g transform="translate(0.000000,200.000000) scale(0.100000,-0.100000)"
fill="#000000" stroke="none">
<path d="M895 1525 c-231 -48 -405 -242 -430 -480 -8 -80 16 -202 57 -285 29
-59 148 -200 170 -200 4 0 8 144 8 321 0 190 4 328 10 339 12 23 61 40 118 40
35 0 51 -6 79 -30 41 -36 66 -38 98 -5 32 31 32 69 -1 102 -31 31 -76 26 -106
-13 -18 -22 -28 -25 -72 -24 -89 3 -97 1 -132 -34 l-34 -34 0 -286 c0 -166 -4
-286 -9 -286 -5 0 -25 22 -45 49 -204 278 -91 647 236 773 66 25 240 28 303 6
l40 -15 3 -252 2 -252 -24 -24 c-22 -22 -34 -25 -94 -25 -63 0 -71 2 -86 25
-22 34 -87 36 -110 3 -54 -76 40 -159 105 -94 20 20 36 24 102 28 71 3 79 6
110 36 l32 32 3 275 3 274 -64 20 c-90 27 -188 33 -272 16z m88 -237 c8 -12 7
-21 -2 -32 -18 -22 -38 -20 -51 5 -22 40 29 66 53 27z m-28 -398 c0 -18 -6
-26 -23 -28 -24 -4 -38 18 -28 44 3 9 15 14 28 12 17 -2 23 -10 23 -28z"/>
</g>
</svg>
